<svg xmlns="http://www.w3.org/2000/svg" width="1200" height="800" viewBox="0 0 1200 800" fill="none">
  <defs>
    <linearGradient id="bg" x1="0" y1="0" x2="1" y2="1">
      <stop offset="0%" stop-color="#0b1e3d"/>
      <stop offset="100%" stop-color="#132d56"/>
    </linearGradient>
    <radialGradient id="orb" cx="0" cy="0" r="1" gradientTransform="translate(900 170) rotate(130) scale(240 240)">
      <stop stop-color="#00c2ff" stop-opacity="0.45"/>
      <stop offset="1" stop-color="#00c2ff" stop-opacity="0"/>
    </radialGradient>
  </defs>
  <rect width="1200" height="800" fill="url(#bg)"/>
  <rect x="80" y="80" width="1040" height="640" rx="42" fill="rgba(255,255,255,0.04)" stroke="rgba(255,255,255,0.16)"/>
  <circle cx="900" cy="170" r="250" fill="url(#orb)"/>
  <g opacity="0.75">
    <path d="M225 560C320 460 435 430 545 455C665 482 740 578 830 600" stroke="#00c2ff" stroke-width="3"/>
    <circle cx="225" cy="560" r="10" fill="#00c2ff"/>
    <circle cx="545" cy="455" r="10" fill="#00c2ff"/>
    <circle cx="830" cy="600" r="10" fill="#00c2ff"/>
  </g>
  <g>
    <circle cx="400" cy="330" r="95" fill="#f1f6ff"/>
    <rect x="315" y="420" width="180" height="220" rx="65" fill="#dbe7ff"/>
    <rect x="282" y="470" width="244" height="190" rx="28" fill="#e8f0ff"/>
    <rect x="332" y="484" width="144" height="150" rx="16" fill="#0a0f1e" opacity="0.14"/>
    <circle cx="370" cy="312" r="12" fill="#0a0f1e"/>
    <circle cx="430" cy="312" r="12" fill="#0a0f1e"/>
    <path d="M360 360C374 376 422 376 440 360" stroke="#0a0f1e" stroke-width="6" stroke-linecap="round"/>
    <rect x="520" y="360" width="170" height="110" rx="14" fill="#0f2e5a"/>
    <rect x="540" y="382" width="130" height="10" rx="5" fill="#00c2ff" opacity="0.8"/>
    <rect x="540" y="406" width="92" height="10" rx="5" fill="#00c2ff" opacity="0.5"/>
    <rect x="540" y="430" width="116" height="10" rx="5" fill="#00c2ff" opacity="0.6"/>
  </g>
</svg>
